<?xml version="1.0" encoding="utf-8"?>
<!-- Generator: Adobe Illustrator 16.0.0, SVG Export Plug-In . SVG Version: 6.00 Build 0)  -->
<!DOCTYPE svg PUBLIC "-//W3C//DTD SVG 1.1//EN" "http://www.w3.org/Graphics/SVG/1.1/DTD/svg11.dtd">
<svg version="1.1" id="图层_1" xmlns="http://www.w3.org/2000/svg" xmlns:xlink="http://www.w3.org/1999/xlink" x="0px" y="0px"
	 width="600px" height="400px" viewBox="0 0 600 400" enable-background="new 0 0 600 400" xml:space="preserve">
<path fill="#004172" d="M147.929,139.126v13.118h332.87h7.818h9.504l8.438,25.412h-18.775v187.41c0,5.35-3.621,9.672-8.08,9.672
	H132.494c-4.466,0-8.076-4.322-8.076-9.672V218.766h-8.915v-47.391v-10.897v-21.352H147.929z"/>
<path fill="#FFFFFF" d="M199.394,230.438l0.086-1.439l0.12-0.099c0-0.132,4.148-0.848,9.14-0.725c4.99,0.121,8.919,1.046,8.919,1.18
	l0.253,1.299"/>
<path fill="#FFFFFF" d="M185.638,314.739h44.506c0.967,0,1.742-0.66,1.742-1.482v-80.952c0,0-23.877-3.809-47.998,0v80.952
	C183.888,314.079,184.667,314.739,185.638,314.739"/>
<path fill="#FFFFFF" d="M216.115,306.979c0.064-1.129-0.754-2.101-1.829-2.149c-1.064-0.047-1.98,0.84-2.049,1.975
	c-0.058,1.137,0.752,2.095,1.827,2.146C215.134,309.001,216.051,308.113,216.115,306.979"/>
<path fill="#B4C0D7" d="M349.607,197.978c0,0.127,0.1,0.231,0.227,0.231l0,0c0.129,0,0.229-0.104,0.229-0.231v-0.248
	c0-0.127-0.1-0.23-0.229-0.23l0,0c-0.127,0-0.227,0.104-0.227,0.23V197.978z"/>
<path fill="#B4C0D7" d="M348.83,197.978c0,0.127,0.104,0.231,0.232,0.231l0,0c0.127,0,0.229-0.104,0.229-0.231v-0.248
	c0-0.127-0.102-0.23-0.229-0.23l0,0c-0.129,0-0.232,0.104-0.232,0.23V197.978z"/>
<path fill="#B4C0D7" d="M348.059,197.978c0,0.127,0.102,0.231,0.229,0.231l0,0c0.127,0,0.232-0.104,0.232-0.231v-0.248
	c0-0.127-0.105-0.23-0.232-0.23l0,0c-0.127,0-0.229,0.104-0.229,0.23V197.978z"/>
<path fill="#B4C0D7" d="M347.285,197.978c0,0.127,0.1,0.231,0.229,0.231l0,0c0.125,0,0.229-0.104,0.229-0.231v-0.248
	c0-0.127-0.104-0.23-0.229-0.23l0,0c-0.129,0-0.229,0.104-0.229,0.23V197.978z"/>
<path fill="#B4C0D7" d="M346.508,197.978c0,0.127,0.104,0.231,0.234,0.231l0,0c0.123,0,0.229-0.104,0.229-0.231v-0.248
	c0-0.127-0.105-0.23-0.229-0.23l0,0c-0.131,0-0.234,0.104-0.234,0.23V197.978z"/>
<path fill="#B4C0D7" d="M345.736,197.978c0,0.127,0.1,0.231,0.229,0.231l0,0c0.129,0,0.232-0.104,0.232-0.231v-0.248
	c0-0.127-0.104-0.23-0.232-0.23l0,0c-0.129,0-0.229,0.104-0.229,0.23V197.978z"/>
<path fill="#B4C0D7" d="M344.965,197.978c0,0.127,0.1,0.231,0.223,0.231l0,0c0.131,0,0.234-0.104,0.234-0.231v-0.248
	c0-0.127-0.104-0.23-0.234-0.23l0,0c-0.123,0-0.223,0.104-0.223,0.23V197.978z"/>
<path fill="#B4C0D7" d="M344.188,197.978c0,0.127,0.105,0.231,0.229,0.231l0,0c0.129,0,0.229-0.104,0.229-0.231v-0.248
	c0-0.127-0.1-0.23-0.229-0.23l0,0c-0.123,0-0.229,0.104-0.229,0.23V197.978z"/>
<path fill="#B4C0D7" d="M343.412,197.978c0,0.127,0.104,0.231,0.23,0.231l0,0c0.125,0,0.23-0.104,0.23-0.231v-0.248
	c0-0.127-0.105-0.23-0.23-0.23l0,0c-0.127,0-0.23,0.104-0.23,0.23V197.978z"/>
<path fill="#B4C0D7" d="M342.641,197.978c0,0.127,0.102,0.231,0.227,0.231l0,0c0.129,0,0.232-0.104,0.232-0.231v-0.248
	c0-0.127-0.104-0.23-0.232-0.23l0,0c-0.125,0-0.227,0.104-0.227,0.23V197.978z"/>
<path fill="#B4C0D7" d="M341.867,197.978c0,0.127,0.104,0.231,0.229,0.231l0,0c0.127,0,0.229-0.104,0.229-0.231v-0.248
	c0-0.127-0.102-0.23-0.229-0.23l0,0c-0.125,0-0.229,0.104-0.229,0.23V197.978z"/>
<path fill="#B4C0D7" d="M341.09,197.978c0,0.127,0.105,0.231,0.229,0.231l0,0c0.129,0,0.234-0.104,0.234-0.231v-0.248
	c0-0.127-0.105-0.23-0.234-0.23l0,0c-0.123,0-0.229,0.104-0.229,0.23V197.978z"/>
<path fill="#B4C0D7" d="M340.318,197.978c0,0.127,0.102,0.231,0.229,0.231l0,0c0.127,0,0.229-0.104,0.229-0.231v-0.248
	c0-0.127-0.102-0.23-0.229-0.23l0,0c-0.127,0-0.229,0.104-0.229,0.23V197.978z"/>
<path fill="#B4C0D7" d="M339.545,197.978c0,0.127,0.102,0.231,0.229,0.231l0,0c0.129,0,0.229-0.104,0.229-0.231v-0.248
	c0-0.127-0.1-0.23-0.229-0.23l0,0c-0.127,0-0.229,0.104-0.229,0.23V197.978z"/>
<path fill="#B4C0D7" d="M338.77,197.978c0,0.127,0.105,0.231,0.229,0.231l0,0c0.129,0,0.232-0.104,0.232-0.231v-0.248
	c0-0.127-0.104-0.23-0.232-0.23l0,0c-0.123,0-0.229,0.104-0.229,0.23V197.978z"/>
<path fill="#B4C0D7" d="M337.996,197.978c0,0.127,0.102,0.231,0.229,0.231l0,0c0.125,0,0.23-0.104,0.23-0.231v-0.248
	c0-0.127-0.105-0.23-0.23-0.23l0,0c-0.127,0-0.229,0.104-0.229,0.23V197.978z"/>
<path fill="#B4C0D7" d="M337.221,197.978c0,0.127,0.104,0.231,0.232,0.231l0,0c0.125,0,0.229-0.104,0.229-0.231v-0.248
	c0-0.127-0.104-0.23-0.229-0.23l0,0c-0.129,0-0.232,0.104-0.232,0.23V197.978z"/>
<path fill="#B4C0D7" d="M336.447,197.978c0,0.127,0.105,0.231,0.229,0.231l0,0c0.129,0,0.234-0.104,0.234-0.231v-0.248
	c0-0.127-0.105-0.23-0.234-0.23l0,0c-0.123,0-0.229,0.104-0.229,0.23V197.978z"/>
<path fill="#B4C0D7" d="M335.676,197.978c0,0.127,0.1,0.231,0.225,0.231l0,0c0.129,0,0.232-0.104,0.232-0.231v-0.248
	c0-0.127-0.104-0.23-0.232-0.23l0,0c-0.125,0-0.225,0.104-0.225,0.23V197.978z"/>
<path fill="#B4C0D7" d="M334.9,197.978c0,0.127,0.102,0.231,0.229,0.231l0,0c0.125,0,0.229-0.104,0.229-0.231v-0.248
	c0-0.127-0.104-0.23-0.229-0.23l0,0c-0.127,0-0.229,0.104-0.229,0.23V197.978z"/>
<path fill="#B4C0D7" d="M334.125,197.978c0,0.127,0.104,0.231,0.23,0.231l0,0c0.129,0,0.23-0.104,0.23-0.231v-0.248
	c0-0.127-0.102-0.23-0.23-0.23l0,0c-0.127,0-0.23,0.104-0.23,0.23V197.978z"/>
<path fill="#B4C0D7" d="M333.352,197.978c0,0.127,0.104,0.231,0.229,0.231l0,0c0.129,0,0.232-0.104,0.232-0.231v-0.248
	c0-0.127-0.104-0.23-0.232-0.23l0,0c-0.125,0-0.229,0.104-0.229,0.23V197.978z"/>
<path fill="#B4C0D7" d="M332.578,197.978c0,0.127,0.105,0.231,0.229,0.231l0,0c0.129,0,0.23-0.104,0.23-0.231v-0.248
	c0-0.127-0.102-0.23-0.23-0.23l0,0c-0.123,0-0.229,0.104-0.229,0.23V197.978z"/>
<path fill="#B4C0D7" d="M331.803,197.978c0,0.127,0.105,0.231,0.23,0.231l0,0c0.127,0,0.229-0.104,0.229-0.231v-0.248
	c0-0.127-0.102-0.23-0.229-0.23l0,0c-0.125,0-0.23,0.104-0.23,0.23V197.978z"/>
<path fill="#B4C0D7" d="M331.027,197.978c0,0.127,0.104,0.231,0.232,0.231l0,0c0.127,0,0.229-0.104,0.229-0.231v-0.248
	c0-0.127-0.102-0.23-0.229-0.23l0,0c-0.129,0-0.232,0.104-0.232,0.23V197.978z"/>
<path fill="#B4C0D7" d="M330.256,197.978c0,0.127,0.104,0.231,0.23,0.231l0,0c0.129,0,0.23-0.104,0.23-0.231v-0.248
	c0-0.127-0.102-0.23-0.23-0.23l0,0c-0.127,0-0.23,0.104-0.23,0.23V197.978z"/>
<path fill="#B4C0D7" d="M329.484,197.978c0,0.127,0.102,0.231,0.227,0.231l0,0c0.129,0,0.232-0.104,0.232-0.231v-0.248
	c0-0.127-0.104-0.23-0.232-0.23l0,0c-0.125,0-0.227,0.104-0.227,0.23V197.978z"/>
<g>
	<polyline fill="none" stroke="#B4C0D7" stroke-width="0.3089" stroke-miterlimit="22.9256" points="161.682,266.827 
		161.682,267.796 161.682,270.357 161.682,273.963 161.682,278.106 161.682,282.239 161.682,285.847 161.682,288.407 
		161.682,289.375 	"/>
	<polyline fill="none" stroke="#B4C0D7" stroke-width="0.3089" stroke-miterlimit="22.9256" points="160.242,266.827 
		160.242,267.796 160.242,270.357 160.242,273.963 160.242,278.106 160.242,282.239 160.242,285.847 160.242,288.407 
		160.242,289.375 	"/>
	<polyline fill="none" stroke="#B4C0D7" stroke-width="0.3089" stroke-miterlimit="22.9256" points="175.744,303.477 
		172.908,303.187 170.272,302.362 167.878,301.066 165.796,299.331 164.087,297.251 162.781,294.856 161.964,292.208 
		161.682,289.375 	"/>
	<polyline fill="none" stroke="#B4C0D7" stroke-width="0.3089" stroke-miterlimit="22.9256" points="175.744,304.874 
		172.615,304.552 169.71,303.651 167.085,302.229 164.79,300.329 162.894,298.034 161.468,295.402 160.565,292.492 160.242,289.375 
			"/>
	<polyline fill="none" stroke="#B4C0D7" stroke-width="0.3089" stroke-miterlimit="22.9256" points="183.888,303.477 
		183.355,303.477 181.931,303.477 177.619,303.477 175.744,303.477 176.279,303.477 175.744,303.477 	"/>
	<polyline fill="none" stroke="#B4C0D7" stroke-width="0.3089" stroke-miterlimit="22.9256" points="182.821,304.874 
		183.62,304.874 181.032,304.874 177.083,304.874 177.534,304.874 176.229,304.874 175.744,304.874 	"/>
	
		<line fill="none" stroke="#B4C0D7" stroke-width="0.3089" stroke-miterlimit="22.9256" x1="160.969" y1="266.827" x2="159.337" y2="266.827"/>
	
		<line fill="none" stroke="#B4C0D7" stroke-width="0.3089" stroke-miterlimit="22.9256" x1="160.969" y1="266.827" x2="162.61" y2="266.827"/>
	
		<line fill="none" stroke="#B4C0D7" stroke-width="0.3089" stroke-miterlimit="22.9256" x1="163.313" y1="261.402" x2="162.737" y2="261.402"/>
	
		<line fill="none" stroke="#B4C0D7" stroke-width="0.3089" stroke-miterlimit="22.9256" x1="159.206" y1="261.402" x2="159.337" y2="266.827"/>
	
		<line fill="none" stroke="#B4C0D7" stroke-width="0.3089" stroke-miterlimit="22.9256" x1="162.737" y1="261.402" x2="162.61" y2="266.827"/>
	
		<line fill="none" stroke="#B4C0D7" stroke-width="0.3089" stroke-miterlimit="22.9256" x1="159.305" y1="265.822" x2="162.641" y2="265.822"/>
	
		<line fill="none" stroke="#B4C0D7" stroke-width="0.3089" stroke-miterlimit="22.9256" x1="159.293" y1="265.313" x2="160.725" y2="265.313"/>
	
		<line fill="none" stroke="#B4C0D7" stroke-width="0.3089" stroke-miterlimit="22.9256" x1="159.287" y1="264.814" x2="160.725" y2="264.814"/>
	
		<line fill="none" stroke="#B4C0D7" stroke-width="0.3089" stroke-miterlimit="22.9256" x1="159.276" y1="264.31" x2="160.725" y2="264.31"/>
	
		<line fill="none" stroke="#B4C0D7" stroke-width="0.3089" stroke-miterlimit="22.9256" x1="159.266" y1="263.81" x2="160.725" y2="263.81"/>
	
		<line fill="none" stroke="#B4C0D7" stroke-width="0.3089" stroke-miterlimit="22.9256" x1="159.247" y1="263.3" x2="160.725" y2="263.3"/>
	
		<line fill="none" stroke="#B4C0D7" stroke-width="0.3089" stroke-miterlimit="22.9256" x1="159.236" y1="262.793" x2="160.725" y2="262.793"/>
	
		<line fill="none" stroke="#B4C0D7" stroke-width="0.3089" stroke-miterlimit="22.9256" x1="159.228" y1="262.294" x2="160.725" y2="262.294"/>
	
		<line fill="none" stroke="#B4C0D7" stroke-width="0.3089" stroke-miterlimit="22.9256" x1="160.725" y1="262.294" x2="160.725" y2="262.793"/>
	
		<line fill="none" stroke="#B4C0D7" stroke-width="0.3089" stroke-miterlimit="22.9256" x1="161.224" y1="262.294" x2="161.224" y2="262.793"/>
	
		<line fill="none" stroke="#B4C0D7" stroke-width="0.3089" stroke-miterlimit="22.9256" x1="161.224" y1="265.313" x2="162.649" y2="265.313"/>
	
		<line fill="none" stroke="#B4C0D7" stroke-width="0.3089" stroke-miterlimit="22.9256" x1="161.224" y1="264.814" x2="162.657" y2="264.814"/>
	
		<line fill="none" stroke="#B4C0D7" stroke-width="0.3089" stroke-miterlimit="22.9256" x1="161.224" y1="264.31" x2="162.666" y2="264.31"/>
	
		<line fill="none" stroke="#B4C0D7" stroke-width="0.3089" stroke-miterlimit="22.9256" x1="161.224" y1="263.81" x2="162.677" y2="263.81"/>
	
		<line fill="none" stroke="#B4C0D7" stroke-width="0.3089" stroke-miterlimit="22.9256" x1="161.224" y1="263.3" x2="162.695" y2="263.3"/>
	
		<line fill="none" stroke="#B4C0D7" stroke-width="0.3089" stroke-miterlimit="22.9256" x1="161.224" y1="262.793" x2="162.707" y2="262.793"/>
	
		<line fill="none" stroke="#B4C0D7" stroke-width="0.3089" stroke-miterlimit="22.9256" x1="160.725" y1="265.313" x2="160.725" y2="265.822"/>
	
		<line fill="none" stroke="#B4C0D7" stroke-width="0.3089" stroke-miterlimit="22.9256" x1="161.224" y1="265.313" x2="161.224" y2="265.822"/>
	
		<line fill="none" stroke="#B4C0D7" stroke-width="0.3089" stroke-miterlimit="22.9256" x1="160.725" y1="264.31" x2="160.725" y2="264.814"/>
	
		<line fill="none" stroke="#B4C0D7" stroke-width="0.3089" stroke-miterlimit="22.9256" x1="161.224" y1="264.31" x2="161.224" y2="264.814"/>
	
		<line fill="none" stroke="#B4C0D7" stroke-width="0.3089" stroke-miterlimit="22.9256" x1="160.725" y1="263.3" x2="160.725" y2="263.81"/>
	
		<line fill="none" stroke="#B4C0D7" stroke-width="0.3089" stroke-miterlimit="22.9256" x1="161.224" y1="263.3" x2="161.224" y2="263.81"/>
	
		<line fill="none" stroke="#B4C0D7" stroke-width="0.3089" stroke-miterlimit="22.9256" x1="161.224" y1="262.294" x2="162.717" y2="262.294"/>
	<g>
		<path fill="none" stroke="#B4C0D7" stroke-width="0.3332" stroke-miterlimit="22.9256" d="M160.971,258.15
			c-2.073,0-3.749,0.965-3.749,2.153c0,1.187,1.676,2.157,3.749,2.157c2.077,0,3.75-0.971,3.75-2.157
			C164.721,259.115,163.048,258.15,160.971,258.15z"/>
		
			<line fill="none" stroke="#B4C0D7" stroke-width="0.3332" stroke-miterlimit="22.9256" x1="163.15" y1="258.552" x2="163.15" y2="262.06"/>
		
			<line fill="none" stroke="#B4C0D7" stroke-width="0.3332" stroke-miterlimit="22.9256" x1="158.722" y1="258.552" x2="158.722" y2="262.06"/>
	</g>
</g>
<polygon fill="#004172" points="97.806,144.477 151.571,103.917 151.772,103.923 151.164,103.423 208.936,101.776 262.705,142.338 
	241.867,142.338 241.867,152.244 208.613,152.244 208.613,142.338 198.52,142.338 181.554,128.397 161.989,144.477 "/>
<g>
	<polygon fill="none" stroke="#FFFFFF" stroke-width="0.7405" stroke-miterlimit="10" points="148.899,140.185 111.688,140.175 
		154.243,108.549 191.456,108.559 	"/>
	<g>
		<polygon fill="none" stroke="#FFFFFF" stroke-width="0.7405" stroke-miterlimit="10" points="179.683,114.801 174.253,114.801 
			180.462,110.184 185.896,110.186 		"/>
		<polygon fill="none" stroke="#FFFFFF" stroke-width="0.7405" stroke-miterlimit="10" points="171.717,120.495 166.285,120.495 
			172.492,115.879 177.923,115.881 		"/>
		<polygon fill="none" stroke="#FFFFFF" stroke-width="0.7405" stroke-miterlimit="10" points="163.39,126.675 157.964,126.675 
			164.171,122.059 169.601,122.059 		"/>
		<polygon fill="none" stroke="#FFFFFF" stroke-width="0.7405" stroke-miterlimit="10" points="155.426,132.612 149.991,132.612 
			156.202,127.996 161.634,127.999 		"/>
		<polygon fill="none" stroke="#FFFFFF" stroke-width="0.7405" stroke-miterlimit="10" points="147.101,139.05 141.666,139.05 
			147.88,134.433 153.31,134.433 		"/>
	</g>
	<g>
		<polygon fill="none" stroke="#FFFFFF" stroke-width="0.7405" stroke-miterlimit="10" points="171.714,114.801 166.285,114.801 
			172.492,110.184 177.927,110.186 		"/>
		<polygon fill="none" stroke="#FFFFFF" stroke-width="0.7405" stroke-miterlimit="10" points="163.75,120.495 158.317,120.495 
			164.529,115.879 169.958,115.881 		"/>
		<polygon fill="none" stroke="#FFFFFF" stroke-width="0.7405" stroke-miterlimit="10" points="155.426,126.675 149.995,126.675 
			156.202,122.059 161.634,122.059 		"/>
		<polygon fill="none" stroke="#FFFFFF" stroke-width="0.7405" stroke-miterlimit="10" points="147.456,132.612 142.022,132.612 
			148.232,127.996 153.665,127.999 		"/>
		<polygon fill="none" stroke="#FFFFFF" stroke-width="0.7405" stroke-miterlimit="10" points="139.132,139.05 133.702,139.05 
			139.915,134.433 145.34,134.433 		"/>
	</g>
	<g>
		<polygon fill="none" stroke="#FFFFFF" stroke-width="0.7405" stroke-miterlimit="10" points="163.747,114.801 158.317,114.801 
			164.529,110.184 169.963,110.186 		"/>
		<polygon fill="none" stroke="#FFFFFF" stroke-width="0.7405" stroke-miterlimit="10" points="155.78,120.495 150.349,120.495 
			156.56,115.879 161.989,115.881 		"/>
		<polygon fill="none" stroke="#FFFFFF" stroke-width="0.7405" stroke-miterlimit="10" points="147.456,126.675 142.026,126.675 
			148.232,122.059 153.665,122.059 		"/>
		<polygon fill="none" stroke="#FFFFFF" stroke-width="0.7405" stroke-miterlimit="10" points="139.489,132.612 134.058,132.612 
			140.267,127.996 145.701,127.999 		"/>
		<polygon fill="none" stroke="#FFFFFF" stroke-width="0.7405" stroke-miterlimit="10" points="131.167,139.05 125.733,139.05 
			131.944,134.433 137.374,134.433 		"/>
	</g>
	<g>
		<polygon fill="none" stroke="#FFFFFF" stroke-width="0.7405" stroke-miterlimit="10" points="155.777,114.801 150.349,114.801 
			156.56,110.184 161.994,110.186 		"/>
		<polygon fill="none" stroke="#FFFFFF" stroke-width="0.7405" stroke-miterlimit="10" points="147.812,120.495 142.382,120.495 
			148.595,115.879 154.021,115.881 		"/>
		<polygon fill="none" stroke="#FFFFFF" stroke-width="0.7405" stroke-miterlimit="10" points="139.489,126.675 134.06,126.675 
			140.267,122.059 145.701,122.059 		"/>
		<polygon fill="none" stroke="#FFFFFF" stroke-width="0.7405" stroke-miterlimit="10" points="131.521,132.612 126.088,132.612 
			132.297,127.996 137.731,127.999 		"/>
		<polygon fill="none" stroke="#FFFFFF" stroke-width="0.7405" stroke-miterlimit="10" points="123.198,139.05 117.764,139.05 
			123.976,134.433 129.404,134.433 		"/>
	</g>
</g>
<path fill="none" stroke="#231815" stroke-width="2.0333" d="M487.783,343.613H336.008c-13.518,0-14.982-7.937-14.982-7.937
	s0-12.426,0-21.56c0-9.133-5.48-11.197-5.48-11.197s-5.428,0-13.885,0"/>
<path fill="none" stroke="#231815" stroke-width="2.0333" d="M301.66,302.92c-2.293,0-4.809,0-7.498,0
	c-12.619,0-11.199,11.197-11.199,11.197v19.597c0,8.01-3.66,9.993-11.014,9.993h-48.743c-5.295,0-8.261-4.271-8.261-9.993v-18.127"
	/>
<path fill="none" stroke="#231815" stroke-width="2.0333" d="M189.226,110.906l30.858,28.191v65.023h-74.383l-0.361,139.586
	l52.4-0.094c3.083,0,5.336-2.001,5.336-5.345v-23.529"/>
<line fill="none" stroke="#231815" stroke-width="2.0333" x1="132.186" y1="374.738" x2="132.186" y2="140.58"/>
<path fill="none" stroke="#D2ECFA" stroke-width="0.8709" stroke-miterlimit="10" d="M302.75,303.735c0,0,10.145,8.704,7.51,10.598
	c-2.631,1.894-8.713-5.135-9.252-7.63C300.467,304.208,301.174,302.317,302.75,303.735z"/>
<path fill="#003A6F" stroke="#D2ECFA" stroke-width="1.236" stroke-miterlimit="10" d="M200.139,327.189
	c0-1.546,1.255-2.802,2.8-2.802h0.425c1.546,0,2.8,1.256,2.8,2.802v0.425c0,1.544-1.254,2.798-2.8,2.798h-0.425
	c-1.545,0-2.8-1.254-2.8-2.798V327.189z"/>
<path fill="none" stroke="#D2ECFA" stroke-width="0.3926" stroke-miterlimit="10" d="M205.953,328.57c0,0,4.574,3.924,3.388,4.778
	c-1.187,0.854-3.927-2.314-4.171-3.44C204.926,328.785,205.245,327.932,205.953,328.57z"/>
<path fill="none" stroke="#6D89B0" stroke-width="0.7183" stroke-miterlimit="2.613" d="M199.394,230.438l0.086-1.439l0.12-0.099
	c0-0.132,4.148-0.848,9.14-0.725c4.99,0.121,8.919,1.046,8.919,1.18l0.253,1.299"/>
<path fill="none" stroke="#6D89B0" stroke-width="0.7183" stroke-miterlimit="2.613" d="M185.638,314.739h44.506
	c0.967,0,1.742-0.66,1.742-1.482v-80.952c0,0-23.877-3.809-47.998,0v80.952C183.888,314.079,184.667,314.739,185.638,314.739"/>
<path fill="none" stroke="#003A6F" stroke-width="0.3581" stroke-miterlimit="2.613" d="M193.793,308.206
	c0,1.181,1.389,2.134,3.093,2.134h22.608c1.704,0,3.079-0.953,3.079-2.134v-4.992c0-1.181-1.375-2.131-3.079-2.131h-22.608
	c-1.704,0-3.093,0.95-3.093,2.131V308.206z"/>
<path fill="#656464" d="M201.662,256.445c-0.839-0.398-1.518-1.093-1.899-1.97c0.243,1.086,0.949,1.97,1.899,2.464V256.445z
	 M201.662,250.613v0.869c-0.854,0.616-1.403,1.597-1.403,2.696c0,0.232,0.028,0.471,0.087,0.692
	c-0.231-0.443-0.354-0.93-0.354-1.427C199.992,252.242,200.664,251.195,201.662,250.613 M202.899,256.796v0.518
	c-0.44-0.047-0.856-0.183-1.237-0.374v-0.494C202.043,256.626,202.468,256.749,202.899,256.796 M202.899,256.11v0.126
	c-0.153,0.021-0.295,0.021-0.432,0.018C202.619,256.212,202.763,256.165,202.899,256.11 M202.899,250.19v0.729
	c-0.458,0.101-0.871,0.3-1.237,0.563v-0.869C202.039,250.406,202.45,250.255,202.899,250.19 M208.911,252.698h-0.496
	c-0.077,0-0.073,0.075-0.073,0.075v0.545h0.635v-0.551C208.977,252.768,208.984,252.698,208.911,252.698 M203.335,250.839
	c0.131-0.018,0.263-0.025,0.399-0.025c1.197,0,2.3,0.599,2.942,1.564c-0.476-1.314-1.776-2.226-3.255-2.226h-0.087V250.839z
	 M203.335,257.345h0.01c2.018,0,3.221-1.69,3.43-2.895c0,0,0.279,1.756,0.288,1.819h0.828c-0.015-0.081-0.564-3.452-0.585-3.502
	c0,0,0-0.069-0.047-0.069h-0.627c-0.07,0-0.056,0.069-0.056,0.069c0.006,0.07,0.023,0.209,0.023,0.489
	c0,0.611-0.072,1.487-0.751,2.336l-0.04,0.056c0,0-0.414-2.822-0.423-2.881c0,0,0-0.069-0.05-0.069H204.7
	c-0.058,0-0.058,0.063-0.058,0.063c-0.009,0.271-0.133,2.193-1.308,3.086v0.285c0.177-0.057,0.353-0.142,0.521-0.246
	c0.543-0.337,0.909-0.846,1.027-1.429c0,0,0.248,1.525,0.282,1.869v0.024l-0.017,0.006c-0.553,0.303-1.183,0.455-1.813,0.462
	V257.345z M210.801,253.668c-0.398,0-0.725,0.13-0.964,0.354c-0.248,0.229-0.364,0.564-0.364,0.98c0,0.365,0.104,0.67,0.3,0.918
	c0.21,0.232,0.506,0.357,0.887,0.357c0.056,0,0.097,0,0.142-0.008v-0.519c-0.188,0-0.348-0.079-0.454-0.202
	c-0.13-0.144-0.181-0.34-0.181-0.619c0-0.26,0.051-0.454,0.165-0.581c0.104-0.122,0.264-0.184,0.47-0.192V253.668z M208.342,256.27
	h0.626v-2.585h-0.626V256.27z M210.801,256.27v-0.519c0.008,0.008,0.024,0.008,0.033,0.008c0.136,0,0.247-0.023,0.343-0.073
	c0.095-0.031,0.168-0.067,0.232-0.12c0.017-0.017,0.031-0.054,0.031-0.099v-1.047c0-0.047-0.015-0.071-0.031-0.092
	c-0.057-0.044-0.121-0.085-0.207-0.117c-0.11-0.032-0.227-0.055-0.344-0.055h-0.058v-0.488h0.008c0.123,0,0.228,0.011,0.313,0.025
	c0.085,0.015,0.166,0.047,0.256,0.096l0.063,0.035v-1.057c0,0,0.009-0.069,0.059-0.069h0.511c0.054,0,0.054,0.069,0.054,0.069v2.887
	v0.615h-0.623v-0.326C211.44,255.943,211.258,256.212,210.801,256.27 M213.858,253.668c-0.369,0.011-0.68,0.13-0.934,0.369
	c-0.247,0.231-0.378,0.558-0.378,0.938c0,0.398,0.131,0.703,0.369,0.944c0.23,0.212,0.544,0.334,0.942,0.35v-0.503
	c-0.154-0.027-0.279-0.088-0.398-0.168c-0.129-0.097-0.224-0.231-0.267-0.452l-0.008-0.074h0.673v-0.357h-0.632
	c-0.033,0-0.033-0.023-0.033-0.045c0.026-0.147,0.082-0.264,0.185-0.365c0.119-0.117,0.296-0.193,0.48-0.193V253.668z
	 M213.858,255.072v-0.357h0.621c0.055,0,0.033-0.048,0.033-0.082c-0.038-0.157-0.113-0.284-0.216-0.375
	c-0.111-0.093-0.258-0.146-0.424-0.146h-0.015v-0.443h0.024c0.374,0,0.678,0.136,0.892,0.385c0.214,0.252,0.327,0.597,0.336,1.02
	H213.858z M213.858,256.27v-0.503c0.033,0,0.063,0.008,0.087,0.008c0.263,0.018,0.7-0.008,0.901-0.369l0.223,0.076
	c-0.07,0.19-0.263,0.788-1.117,0.788H213.858z M216.641,254.601c-0.233,0.01-0.455,0.049-0.623,0.129
	c-0.404,0.183-0.469,0.551-0.46,0.832c0.03,0.399,0.384,0.684,0.844,0.708c0.088,0.008,0.166,0.008,0.239,0v-0.414h-0.11
	c-0.296-0.026-0.39-0.225-0.416-0.312c0-0.042-0.073-0.414,0.293-0.526c0.075-0.033,0.154-0.042,0.233-0.049V254.601z
	 M216.641,253.661c-0.678,0.032-0.925,0.45-1.007,0.664l-0.021,0.069l0.238,0.089c0,0,0.16-0.454,0.78-0.431h0.009V253.661z
	 M202.899,250.92v-0.729c0.142-0.022,0.282-0.038,0.436-0.038v0.687C203.182,250.856,203.041,250.877,202.899,250.92
	 M202.899,256.236v-0.126c0.159-0.072,0.303-0.158,0.436-0.264v0.285C203.182,256.182,203.041,256.212,202.899,256.236
	 M202.899,257.313v-0.518c0.142,0.016,0.282,0.022,0.428,0.022h0.008v0.526C203.182,257.345,203.041,257.336,202.899,257.313
	 M216.641,256.27v-0.414c0.215,0,0.393-0.056,0.478-0.104c0.041-0.016,0.058-0.041,0.058-0.087v-0.534
	c0-0.058-0.017-0.083-0.066-0.099c-0.111-0.029-0.284-0.071-0.469-0.063v-0.368c0.193,0,0.381,0.023,0.54,0.069
	c0-0.075,0.072-0.587-0.54-0.617v-0.392h0.064c0.813,0,1.03,0.526,1.021,0.832v0.117v0.143v0.84v0.677h-0.551v-0.239
	C217.039,256.165,216.896,256.254,216.641,256.27"/>
<polyline fill="none" stroke="#B4C0D7" stroke-width="0.3089" stroke-miterlimit="22.9256" points="231.886,283.2 277.858,283.2 
	277.858,166.126 407.297,166.126 407.297,272.675 "/>
<path fill="none" stroke="#231815" stroke-width="2.0333" d="M340.076,192.521c0-7.391-5.082-12.217-13.113-12.217h-14.051
	c-8.121,0-11.25,3.984-11.25,10.786V303.81"/>
<rect x="399.994" y="272.675" fill="none" stroke="#B4C0D7" stroke-width="0.3089" stroke-miterlimit="22.9256" width="14.617" height="20.866"/>
<rect x="403.465" y="274.65" fill="none" stroke="#B4C0D7" stroke-width="0.3089" stroke-miterlimit="22.9256" width="7.311" height="8.55"/>
<path fill="none" stroke="#B4C0D7" stroke-width="0.3089" stroke-miterlimit="22.9256" d="M404.924,289.279
	c0-1.313,1.066-2.376,2.375-2.376l0,0c1.314,0,2.379,1.063,2.379,2.376l0,0c0,1.312-1.064,2.376-2.379,2.376l0,0
	C405.99,291.655,404.924,290.591,404.924,289.279L404.924,289.279z"/>
<path fill="#E8E8E8" d="M428.654,334.411c0,0.545,0,1.153,0,1.798c0,2.398-1.463,3.022-3.266,1.393l-2.975-2.693h-66.43
	c-0.438,0.377-1.648,1.442-3.086,2.709c-1.809,1.586-3.221,0.922-3.146-1.481l0.059-2.177c-5.117-4.829-9.4-26.867-9.4-26.867
	c0.799,1.03,2.205,1.63,3.693,0.884c17.613-8.856,37.051-3.959,54.482,2.789c12.703,4.919,25.357,9.873,39.15,7.409
	c0.186-0.027,0.354-0.084,0.512-0.142C438.248,318.032,433.861,331.706,428.654,334.411z"/>
<path fill="#E8E8E8" d="M438.248,314.195c-0.158,0.06-0.326,0.114-0.512,0.144c-13.793,2.463-26.447-2.494-39.15-7.408
	c-17.428-6.755-36.869-11.649-54.482-2.794c-1.488,0.751-2.895,0.149-3.693-0.881c-0.969-1.266-1.029-3.171,0.791-4.089
	c0.027-0.018,0.059-0.023,0.09-0.045c2.029-1.009,4.092-1.861,6.189-2.585c12.426-4.3,25.934-3.685,38.725,0
	c0.125,0.036,0.252,0.068,0.375,0.104c16.053,4.703,32.322,15.235,49.625,12.149c0.797-0.146,1.479,0.022,2.043,0.36
	C440.119,310.269,440.527,313.371,438.248,314.195z"/>
<polygon fill="#E8E8E8" points="436.973,306.288 433.174,306.288 432.92,302.992 429.369,300.71 429.625,299.693 436.721,300.454 
	"/>
<path fill="#D2ECFA" d="M294.98,303.34c0-3.433,2.781-6.214,6.215-6.214h0.936c3.432,0,6.215,2.781,6.215,6.214v0.938
	c0,3.433-2.783,6.213-6.215,6.213h-0.936c-3.434,0-6.215-2.78-6.215-6.213V303.34z"/>
<path fill="#B4C0D7" d="M340.076,191.404c3.381,0,9.986,2.727,9.986,6.095h-20.645C329.418,194.131,336.715,191.404,340.076,191.404
	"/>
<path fill="#B4C0D7" d="M337.221,190.786c0,1.095,0.891,1.985,1.988,1.985h1.672c1.1,0,1.986-0.891,1.986-1.985l0,0
	c0-1.097-0.887-1.988-1.986-1.988h-1.672C338.111,188.798,337.221,189.689,337.221,190.786L337.221,190.786z"/>
<g>
	<g>
		<path fill="#003548" d="M275.102,115.491c-0.078-0.064-0.158-0.177-0.158-0.32c0-0.224,0.191-0.414,0.416-0.414
			c0.111,0,0.207,0.047,0.271,0.095c1.117,1.007,2.234,1.454,3.768,1.454c1.677,0,2.827-0.942,2.827-2.221v-0.031
			c0-1.182-0.624-1.869-3.161-2.38c-2.684-0.543-3.77-1.452-3.77-3.146v-0.031c0-1.661,1.518-2.938,3.594-2.938
			c1.5,0,2.539,0.383,3.561,1.148c0.08,0.064,0.175,0.177,0.175,0.336c0,0.224-0.19,0.416-0.414,0.416
			c-0.097,0-0.192-0.033-0.272-0.097c-0.973-0.751-1.947-1.054-3.08-1.054c-1.646,0-2.732,0.942-2.732,2.108v0.03
			c0,1.182,0.608,1.9,3.258,2.444c2.587,0.527,3.672,1.454,3.672,3.082v0.031c0,1.806-1.548,3.051-3.703,3.051
			C277.676,117.056,276.365,116.529,275.102,115.491z"/>
		<path fill="#003548" d="M285.049,112.856v-0.033c0-2.283,1.821-4.263,4.152-4.263c1.404,0,2.33,0.606,3.066,1.294
			c0.063,0.063,0.111,0.175,0.111,0.286c0,0.225-0.176,0.399-0.398,0.399c-0.098,0-0.209-0.03-0.271-0.095
			c-0.656-0.624-1.424-1.15-2.525-1.15c-1.852,0-3.289,1.549-3.289,3.497v0.031c0,1.965,1.486,3.531,3.354,3.531
			c1.055,0,1.9-0.512,2.557-1.166c0.063-0.064,0.143-0.129,0.254-0.129c0.191,0,0.383,0.19,0.383,0.383
			c0,0.08-0.029,0.177-0.096,0.239c-0.814,0.831-1.754,1.406-3.145,1.406C286.853,117.088,285.049,115.14,285.049,112.856z"/>
		<path fill="#003548" d="M294.723,105.574c0-0.224,0.16-0.4,0.385-0.4c0.223,0,0.398,0.177,0.398,0.4v4.694
			c0.543-0.958,1.453-1.708,2.938-1.708c2.061,0,3.258,1.404,3.258,3.354v4.646c0,0.241-0.158,0.4-0.383,0.4
			c-0.223,0-0.4-0.159-0.4-0.4v-4.501c0-1.678-0.941-2.779-2.586-2.779c-1.598,0-2.826,1.213-2.826,2.905v4.375
			c0,0.241-0.16,0.4-0.383,0.4c-0.225,0-0.4-0.159-0.4-0.4V105.574z"/>
		<path fill="#003548" d="M307.941,117.088c-2.141,0-3.99-1.709-3.99-4.249v-0.031c0-2.362,1.658-4.247,3.863-4.247
			c2.283,0,3.736,1.885,3.736,4.217c0,0.19-0.191,0.366-0.383,0.366h-6.389c0.145,2.027,1.598,3.211,3.193,3.211
			c1.166,0,1.98-0.48,2.637-1.119c0.063-0.064,0.143-0.111,0.254-0.111c0.209,0,0.385,0.159,0.385,0.367
			c0,0.079-0.033,0.175-0.129,0.271C310.322,116.56,309.41,117.088,307.941,117.088z M310.703,112.44
			c-0.111-1.646-1.053-3.161-2.922-3.161c-1.611,0-2.857,1.356-3.002,3.161H310.703z"/>
		<path fill="#003548" d="M313.83,109.087c0-0.224,0.16-0.398,0.385-0.398c0.223,0,0.398,0.159,0.398,0.398v1.117
			c0.527-0.845,1.262-1.644,2.715-1.644c1.422,0,2.301,0.814,2.746,1.757c0.527-0.912,1.406-1.757,2.939-1.757
			c1.932,0,3.129,1.356,3.129,3.4v4.599c0,0.241-0.158,0.4-0.383,0.4c-0.223,0-0.4-0.159-0.4-0.4v-4.501
			c0-1.757-0.908-2.779-2.412-2.779c-1.371,0-2.568,1.054-2.568,2.874v4.406c0,0.241-0.16,0.4-0.385,0.4
			c-0.223,0-0.398-0.159-0.398-0.4v-4.551c0-1.691-0.926-2.729-2.379-2.729s-2.604,1.277-2.604,2.923v4.357
			c0,0.241-0.158,0.4-0.383,0.4s-0.4-0.159-0.4-0.4V109.087z"/>
		<path fill="#003548" d="M328.342,114.533V114.5c0-1.692,1.453-2.649,3.561-2.649c1.133,0,1.916,0.144,2.701,0.352v-0.352
			c0-1.646-1.008-2.491-2.686-2.491c-0.895,0-1.645,0.224-2.314,0.542c-0.063,0.033-0.127,0.048-0.176,0.048
			c-0.193,0-0.367-0.176-0.367-0.366c0-0.192,0.145-0.321,0.223-0.353c0.83-0.367,1.646-0.605,2.684-0.605
			c1.102,0,1.98,0.303,2.57,0.894c0.543,0.542,0.83,1.294,0.83,2.299v4.742c0,0.241-0.158,0.4-0.383,0.4
			c-0.223,0-0.381-0.159-0.381-0.4v-1.021c-0.561,0.783-1.568,1.55-3.117,1.55C329.969,117.088,328.342,116.226,328.342,114.533z
			 M334.617,113.846v-0.925c-0.686-0.177-1.598-0.368-2.764-0.368c-1.723,0-2.682,0.767-2.682,1.9v0.031
			c0,1.182,1.117,1.87,2.363,1.87C333.197,116.354,334.617,115.332,334.617,113.846z"/>
		<path fill="#003548" d="M338.605,114.804v-5.333h-0.879c-0.189,0-0.365-0.176-0.365-0.368c0-0.19,0.176-0.352,0.365-0.352h0.879
			v-2.268c0-0.224,0.16-0.398,0.385-0.398s0.398,0.175,0.398,0.398v2.268h2.557c0.191,0,0.367,0.177,0.367,0.367
			c0,0.192-0.176,0.353-0.367,0.353h-2.557v5.253c0,1.166,0.688,1.582,1.629,1.582c0.559,0,0.813-0.16,0.928-0.16
			c0.174,0,0.352,0.16,0.352,0.353c0,0.159-0.098,0.27-0.258,0.334c-0.318,0.112-0.686,0.208-1.148,0.208
			C339.629,117.04,338.605,116.354,338.605,114.804z"/>
		<path fill="#003548" d="M344.576,105.957c0-0.271,0.207-0.478,0.48-0.478c0.27,0,0.494,0.206,0.494,0.478v0.272
			c0,0.271-0.225,0.478-0.494,0.478c-0.273,0-0.48-0.206-0.48-0.478V105.957z M344.674,109.087c0-0.224,0.158-0.398,0.383-0.398
			c0.223,0,0.398,0.159,0.398,0.398v7.473c0,0.241-0.16,0.4-0.383,0.4c-0.225,0-0.398-0.159-0.398-0.4V109.087z"/>
		<path fill="#003548" d="M347.979,112.856v-0.033c0-2.283,1.82-4.263,4.15-4.263c1.406,0,2.33,0.606,3.066,1.294
			c0.063,0.063,0.111,0.175,0.111,0.286c0,0.225-0.174,0.399-0.398,0.399c-0.096,0-0.207-0.03-0.271-0.095
			c-0.654-0.624-1.422-1.15-2.523-1.15c-1.854,0-3.291,1.549-3.291,3.497v0.031c0,1.965,1.488,3.531,3.355,3.531
			c1.055,0,1.898-0.512,2.555-1.166c0.064-0.064,0.143-0.129,0.256-0.129c0.189,0,0.383,0.19,0.383,0.383
			c0,0.08-0.031,0.177-0.096,0.239c-0.816,0.831-1.756,1.406-3.146,1.406C349.781,117.088,347.979,115.14,347.979,112.856z"/>
		<path fill="#003548" d="M370.01,116.56c0,0.241-0.158,0.4-0.381,0.4c-0.225,0-0.402-0.159-0.402-0.4v-1.484
			c-0.701,1.07-1.74,2.013-3.354,2.013c-1.963,0-3.959-1.581-3.959-4.231v-0.033c0-2.65,1.996-4.263,3.959-4.263
			c1.631,0,2.684,0.927,3.354,1.949v-4.936c0-0.239,0.162-0.4,0.385-0.4c0.225,0,0.398,0.161,0.398,0.4V116.56z M362.76,112.792
			v0.031c0,2.142,1.486,3.513,3.193,3.513c1.695,0,3.322-1.42,3.322-3.497v-0.031c0-2.092-1.627-3.497-3.322-3.497
			C364.18,109.311,362.76,110.604,362.76,112.792z"/>
		<path fill="#003548" d="M372.992,105.957c0-0.271,0.207-0.478,0.479-0.478c0.273,0,0.496,0.206,0.496,0.478v0.272
			c0,0.271-0.223,0.478-0.496,0.478c-0.271,0-0.479-0.206-0.479-0.478V105.957z M373.088,109.087c0-0.224,0.16-0.398,0.383-0.398
			s0.4,0.159,0.4,0.398v7.473c0,0.241-0.16,0.4-0.385,0.4s-0.398-0.159-0.398-0.4V109.087z"/>
		<path fill="#003548" d="M376.281,114.533V114.5c0-1.692,1.453-2.649,3.561-2.649c1.133,0,1.916,0.144,2.699,0.352v-0.352
			c0-1.646-1.006-2.491-2.684-2.491c-0.893,0-1.645,0.224-2.314,0.542c-0.063,0.033-0.127,0.048-0.178,0.048
			c-0.191,0-0.365-0.176-0.365-0.366c0-0.192,0.143-0.321,0.223-0.353c0.83-0.367,1.646-0.605,2.684-0.605
			c1.102,0,1.98,0.303,2.57,0.894c0.543,0.542,0.83,1.294,0.83,2.299v4.742c0,0.241-0.16,0.4-0.383,0.4s-0.383-0.159-0.383-0.4
			v-1.021c-0.559,0.783-1.566,1.55-3.115,1.55C377.908,117.088,376.281,116.226,376.281,114.533z M382.557,113.846v-0.925
			c-0.686-0.177-1.598-0.368-2.762-0.368c-1.725,0-2.684,0.767-2.684,1.9v0.031c0,1.182,1.117,1.87,2.363,1.87
			C381.137,116.354,382.557,115.332,382.557,113.846z"/>
		<path fill="#003548" d="M386.133,118.365c-0.113-0.08-0.176-0.208-0.176-0.352c0-0.175,0.191-0.367,0.398-0.367
			c0.096,0,0.16,0.032,0.225,0.064c0.924,0.688,1.994,1.036,3.129,1.036c1.867,0,3.193-1.068,3.193-3.16v-1.182
			c-0.703,1.007-1.789,1.884-3.4,1.884c-1.965,0-3.914-1.501-3.914-3.832v-0.032c0-2.347,1.949-3.864,3.914-3.864
			c1.629,0,2.73,0.862,3.4,1.82v-1.294c0-0.224,0.16-0.398,0.383-0.398c0.225,0,0.4,0.175,0.4,0.398v6.548
			c0,1.182-0.385,2.108-1.039,2.764c-0.703,0.701-1.756,1.084-2.955,1.084C388.4,119.482,387.186,119.1,386.133,118.365z
			 M392.951,112.44v-0.031c0-1.885-1.678-3.099-3.369-3.099c-1.711,0-3.146,1.182-3.146,3.082v0.032
			c0,1.837,1.469,3.113,3.146,3.113C391.273,115.538,392.951,114.293,392.951,112.44z"/>
		<path fill="#003548" d="M396.65,109.087c0-0.224,0.16-0.398,0.383-0.398c0.225,0,0.4,0.159,0.4,0.398v1.979
			c0.703-1.579,2.123-2.441,3.273-2.441c0.24,0,0.416,0.19,0.416,0.431c0,0.224-0.162,0.415-0.416,0.432
			c-1.727,0.159-3.273,1.451-3.273,4.071v3.001c0,0.224-0.16,0.4-0.383,0.4c-0.225,0-0.4-0.159-0.4-0.4V109.087z"/>
		<path fill="#003548" d="M402.365,114.533V114.5c0-1.692,1.453-2.649,3.563-2.649c1.131,0,1.914,0.144,2.697,0.352v-0.352
			c0-1.646-1.006-2.491-2.684-2.491c-0.893,0-1.643,0.224-2.316,0.542c-0.063,0.033-0.125,0.048-0.174,0.048
			c-0.193,0-0.367-0.176-0.367-0.366c0-0.192,0.145-0.321,0.223-0.353c0.83-0.367,1.646-0.605,2.684-0.605
			c1.102,0,1.98,0.303,2.57,0.894c0.541,0.542,0.83,1.294,0.83,2.299v4.742c0,0.241-0.16,0.4-0.383,0.4s-0.383-0.159-0.383-0.4
			v-1.021c-0.559,0.783-1.566,1.55-3.115,1.55C403.992,117.088,402.365,116.226,402.365,114.533z M408.641,113.846v-0.925
			c-0.686-0.177-1.596-0.368-2.762-0.368c-1.725,0-2.684,0.767-2.684,1.9v0.031c0,1.182,1.117,1.87,2.363,1.87
			C407.221,116.354,408.641,115.332,408.641,113.846z"/>
		<path fill="#003548" d="M412.199,109.087c0-0.224,0.16-0.398,0.383-0.398c0.225,0,0.4,0.159,0.4,0.398v1.117
			c0.525-0.845,1.26-1.644,2.713-1.644c1.424,0,2.301,0.814,2.748,1.757c0.525-0.912,1.404-1.757,2.938-1.757
			c1.934,0,3.131,1.356,3.131,3.4v4.599c0,0.241-0.16,0.4-0.385,0.4c-0.223,0-0.398-0.159-0.398-0.4v-4.501
			c0-1.757-0.91-2.779-2.412-2.779c-1.373,0-2.568,1.054-2.568,2.874v4.406c0,0.241-0.162,0.4-0.385,0.4c-0.225,0-0.4-0.159-0.4-0.4
			v-4.551c0-1.691-0.926-2.729-2.379-2.729c-1.451,0-2.602,1.277-2.602,2.923v4.357c0,0.241-0.16,0.4-0.385,0.4
			c-0.223,0-0.398-0.159-0.398-0.4V109.087z"/>
		<path fill="#003548" d="M432.65,109.471h-0.879c-0.209,0-0.367-0.16-0.367-0.368c0-0.19,0.176-0.352,0.367-0.352h0.879v-0.798
			c0-0.926,0.254-1.659,0.717-2.124c0.416-0.414,0.99-0.638,1.709-0.638c0.4,0,0.703,0.047,0.977,0.111
			c0.174,0.032,0.303,0.191,0.303,0.366c0,0.224-0.209,0.384-0.447,0.337c-0.256-0.049-0.529-0.098-0.832-0.098
			c-1.117,0-1.645,0.673-1.645,2.062v0.781h2.539c0.207,0,0.367,0.161,0.367,0.367c0,0.192-0.176,0.353-0.367,0.353h-2.539v7.089
			c0,0.224-0.16,0.4-0.385,0.4c-0.223,0-0.396-0.177-0.396-0.4V109.471z"/>
		<path fill="#003548" d="M437.391,112.856v-0.033c0-2.283,1.771-4.263,4.199-4.263c2.412,0,4.168,1.949,4.168,4.231v0.031
			c0,2.283-1.773,4.265-4.199,4.265C439.146,117.088,437.391,115.14,437.391,112.856z M444.912,112.856v-0.033
			c0-1.964-1.469-3.528-3.354-3.528c-1.934,0-3.322,1.582-3.322,3.497v0.031c0,1.965,1.469,3.531,3.354,3.531
			C443.521,116.354,444.912,114.772,444.912,112.856z"/>
		<path fill="#003548" d="M448.164,109.087c0-0.224,0.162-0.398,0.385-0.398c0.225,0,0.398,0.159,0.398,0.398v1.979
			c0.705-1.579,2.125-2.441,3.273-2.441c0.24,0,0.418,0.19,0.418,0.431c0,0.224-0.162,0.415-0.418,0.432
			c-1.725,0.159-3.273,1.451-3.273,4.071v3.001c0,0.224-0.158,0.4-0.383,0.4c-0.223,0-0.4-0.159-0.4-0.4V109.087z"/>
		<path fill="#003548" d="M459.357,105.957c0-0.271,0.205-0.478,0.479-0.478c0.271,0,0.494,0.206,0.494,0.478v0.272
			c0,0.271-0.223,0.478-0.494,0.478c-0.273,0-0.479-0.206-0.479-0.478V105.957z M459.453,109.087c0-0.224,0.158-0.398,0.383-0.398
			c0.223,0,0.398,0.159,0.398,0.398v7.473c0,0.241-0.16,0.4-0.385,0.4c-0.223,0-0.396-0.159-0.396-0.4V109.087z"/>
		<path fill="#003548" d="M463.314,109.087c0-0.224,0.16-0.398,0.385-0.398c0.223,0,0.398,0.159,0.398,0.398v1.182
			c0.543-0.958,1.453-1.708,2.938-1.708c2.063,0,3.258,1.404,3.258,3.354v4.646c0,0.241-0.158,0.4-0.381,0.4
			c-0.225,0-0.4-0.159-0.4-0.4v-4.501c0-1.678-0.943-2.779-2.586-2.779c-1.598,0-2.828,1.213-2.828,2.905v4.375
			c0,0.241-0.158,0.4-0.383,0.4s-0.4-0.159-0.4-0.4V109.087z"/>
		<path fill="#003548" d="M473.531,114.804v-5.333h-0.877c-0.191,0-0.369-0.176-0.369-0.368c0-0.19,0.178-0.352,0.369-0.352h0.877
			v-2.268c0-0.224,0.16-0.398,0.383-0.398c0.225,0,0.4,0.175,0.4,0.398v2.268h2.555c0.193,0,0.367,0.177,0.367,0.367
			c0,0.192-0.174,0.353-0.367,0.353h-2.555v5.253c0,1.166,0.688,1.582,1.629,1.582c0.559,0,0.814-0.16,0.926-0.16
			c0.176,0,0.354,0.16,0.354,0.353c0,0.159-0.098,0.27-0.258,0.334c-0.318,0.112-0.686,0.208-1.148,0.208
			C474.553,117.04,473.531,116.354,473.531,114.804z"/>
		<path fill="#003548" d="M482.92,117.088c-2.141,0-3.992-1.709-3.992-4.249v-0.031c0-2.362,1.66-4.247,3.865-4.247
			c2.281,0,3.736,1.885,3.736,4.217c0,0.19-0.193,0.366-0.385,0.366h-6.387c0.145,2.027,1.598,3.211,3.193,3.211
			c1.166,0,1.98-0.48,2.635-1.119c0.064-0.064,0.145-0.111,0.256-0.111c0.207,0,0.385,0.159,0.385,0.367
			c0,0.079-0.033,0.175-0.129,0.271C485.299,116.56,484.387,117.088,482.92,117.088z M485.682,112.44
			c-0.111-1.646-1.053-3.161-2.922-3.161c-1.613,0-2.857,1.356-3.002,3.161H485.682z"/>
		<path fill="#003548" d="M488.826,118.365c-0.113-0.08-0.178-0.208-0.178-0.352c0-0.175,0.191-0.367,0.4-0.367
			c0.096,0,0.16,0.032,0.225,0.064c0.924,0.688,1.994,1.036,3.129,1.036c1.867,0,3.193-1.068,3.193-3.16v-1.182
			c-0.701,1.007-1.789,1.884-3.4,1.884c-1.965,0-3.914-1.501-3.914-3.832v-0.032c0-2.347,1.949-3.864,3.914-3.864
			c1.627,0,2.729,0.862,3.4,1.82v-1.294c0-0.224,0.16-0.398,0.383-0.398c0.225,0,0.4,0.175,0.4,0.398v6.548
			c0,1.182-0.385,2.108-1.039,2.764c-0.703,0.701-1.756,1.084-2.955,1.084C491.094,119.482,489.879,119.1,488.826,118.365z
			 M495.645,112.44v-0.031c0-1.885-1.678-3.099-3.371-3.099c-1.707,0-3.145,1.182-3.145,3.082v0.032
			c0,1.837,1.469,3.113,3.145,3.113C493.967,115.538,495.645,114.293,495.645,112.44z"/>
		<path fill="#003548" d="M499.344,109.087c0-0.224,0.16-0.398,0.385-0.398c0.223,0,0.398,0.159,0.398,0.398v1.979
			c0.703-1.579,2.123-2.441,3.275-2.441c0.238,0,0.414,0.19,0.414,0.431c0,0.224-0.16,0.415-0.414,0.432
			c-1.727,0.159-3.275,1.451-3.275,4.071v3.001c0,0.224-0.158,0.4-0.383,0.4s-0.4-0.159-0.4-0.4V109.087z"/>
		<path fill="#003548" d="M505.059,114.533V114.5c0-1.692,1.453-2.649,3.561-2.649c1.133,0,1.918,0.144,2.699,0.352v-0.352
			c0-1.646-1.006-2.491-2.684-2.491c-0.893,0-1.643,0.224-2.316,0.542c-0.063,0.033-0.125,0.048-0.174,0.048
			c-0.193,0-0.367-0.176-0.367-0.366c0-0.192,0.145-0.321,0.223-0.353c0.83-0.367,1.646-0.605,2.686-0.605
			c1.1,0,1.979,0.303,2.568,0.894c0.543,0.542,0.83,1.294,0.83,2.299v4.742c0,0.241-0.16,0.4-0.383,0.4s-0.383-0.159-0.383-0.4
			v-1.021c-0.559,0.783-1.566,1.55-3.115,1.55C506.688,117.088,505.059,116.226,505.059,114.533z M511.334,113.846v-0.925
			c-0.686-0.177-1.598-0.368-2.762-0.368c-1.725,0-2.682,0.767-2.682,1.9v0.031c0,1.182,1.117,1.87,2.361,1.87
			C509.914,116.354,511.334,115.332,511.334,113.846z"/>
		<path fill="#003548" d="M515.324,114.804v-5.333h-0.879c-0.191,0-0.367-0.176-0.367-0.368c0-0.19,0.176-0.352,0.367-0.352h0.879
			v-2.268c0-0.224,0.158-0.398,0.383-0.398s0.398,0.175,0.398,0.398v2.268h2.555c0.193,0,0.369,0.177,0.369,0.367
			c0,0.192-0.176,0.353-0.369,0.353h-2.555v5.253c0,1.166,0.688,1.582,1.629,1.582c0.561,0,0.814-0.16,0.926-0.16
			c0.176,0,0.354,0.16,0.354,0.353c0,0.159-0.098,0.27-0.258,0.334c-0.316,0.112-0.686,0.208-1.146,0.208
			C516.346,117.04,515.324,116.354,515.324,114.804z"/>
		<path fill="#003548" d="M521.295,105.957c0-0.271,0.205-0.478,0.479-0.478c0.271,0,0.494,0.206,0.494,0.478v0.272
			c0,0.271-0.223,0.478-0.494,0.478c-0.273,0-0.479-0.206-0.479-0.478V105.957z M521.391,109.087c0-0.224,0.158-0.398,0.383-0.398
			c0.223,0,0.4,0.159,0.4,0.398v7.473c0,0.241-0.162,0.4-0.387,0.4c-0.223,0-0.396-0.159-0.396-0.4V109.087z"/>
		<path fill="#003548" d="M528.432,117.009h-0.033c-0.225,0-0.35-0.128-0.447-0.336l-3.273-7.347
			c-0.031-0.079-0.063-0.159-0.063-0.239c0-0.224,0.174-0.398,0.414-0.398c0.242,0,0.336,0.144,0.416,0.319l2.971,7.01l3.018-7.043
			c0.064-0.159,0.176-0.286,0.383-0.286c0.223,0,0.4,0.175,0.4,0.398c0,0.08-0.016,0.129-0.049,0.208l-3.289,7.378
			C528.781,116.881,528.656,117.009,528.432,117.009z"/>
		<path fill="#003548" d="M537.979,117.088c-2.141,0-3.992-1.709-3.992-4.249v-0.031c0-2.362,1.66-4.247,3.865-4.247
			c2.283,0,3.736,1.885,3.736,4.217c0,0.19-0.191,0.366-0.383,0.366h-6.389c0.145,2.027,1.598,3.211,3.193,3.211
			c1.166,0,1.98-0.48,2.635-1.119c0.064-0.064,0.145-0.111,0.256-0.111c0.207,0,0.385,0.159,0.385,0.367
			c0,0.079-0.033,0.175-0.129,0.271C540.357,116.56,539.447,117.088,537.979,117.088z M540.74,112.44
			c-0.111-1.646-1.053-3.161-2.922-3.161c-1.613,0-2.857,1.356-3.002,3.161H540.74z"/>
		<path fill="#003548" d="M274.832,132.014v-0.034c0-2.282,1.821-4.263,4.152-4.263c1.404,0,2.33,0.606,3.066,1.295
			c0.063,0.062,0.111,0.174,0.111,0.285c0,0.226-0.175,0.4-0.398,0.4c-0.097,0-0.207-0.033-0.273-0.096
			c-0.653-0.623-1.422-1.15-2.522-1.15c-1.853,0-3.29,1.549-3.29,3.498v0.03c0,1.965,1.486,3.531,3.354,3.531
			c1.055,0,1.9-0.512,2.555-1.166c0.064-0.064,0.145-0.128,0.258-0.128c0.189,0,0.382,0.189,0.382,0.383
			c0,0.079-0.03,0.175-0.095,0.238c-0.816,0.832-1.758,1.407-3.146,1.407C276.635,136.245,274.832,134.296,274.832,132.014z"/>
		<path fill="#003548" d="M283.947,132.014v-0.034c0-2.282,1.773-4.263,4.199-4.263c2.412,0,4.168,1.947,4.168,4.232v0.03
			c0,2.286-1.771,4.266-4.199,4.266C285.705,136.245,283.947,134.296,283.947,132.014z M291.469,132.014v-0.034
			c0-1.964-1.469-3.528-3.354-3.528c-1.934,0-3.322,1.582-3.322,3.498v0.03c0,1.965,1.469,3.531,3.354,3.531
			C290.08,135.511,291.469,133.93,291.469,132.014z"/>
		<path fill="#003548" d="M294.723,128.244c0-0.224,0.16-0.398,0.385-0.398c0.223,0,0.398,0.159,0.398,0.398v1.181
			c0.543-0.958,1.453-1.708,2.938-1.708c2.061,0,3.258,1.405,3.258,3.354v4.646c0,0.239-0.158,0.398-0.383,0.398
			c-0.223,0-0.4-0.159-0.4-0.398v-4.503c0-1.677-0.941-2.778-2.586-2.778c-1.598,0-2.826,1.212-2.826,2.905v4.376
			c0,0.239-0.16,0.398-0.383,0.398c-0.225,0-0.4-0.159-0.4-0.398V128.244z"/>
		<path fill="#003548" d="M304.938,133.96v-5.333h-0.877c-0.191,0-0.367-0.176-0.367-0.368c0-0.19,0.176-0.351,0.367-0.351h0.877
			v-2.269c0-0.223,0.16-0.398,0.385-0.398s0.398,0.176,0.398,0.398v2.269h2.555c0.193,0,0.369,0.177,0.369,0.367
			c0,0.191-0.176,0.352-0.369,0.352h-2.555v5.254c0,1.166,0.688,1.582,1.629,1.582c0.561,0,0.814-0.16,0.926-0.16
			c0.178,0,0.354,0.16,0.354,0.352c0,0.159-0.098,0.271-0.258,0.334c-0.316,0.113-0.686,0.209-1.146,0.209
			C305.961,136.197,304.938,135.511,304.938,133.96z"/>
		<path fill="#003548" d="M310.893,128.244c0-0.224,0.16-0.398,0.385-0.398s0.398,0.159,0.398,0.398v1.98
			c0.703-1.582,2.123-2.443,3.273-2.443c0.24,0,0.416,0.19,0.416,0.431c0,0.225-0.16,0.415-0.416,0.431
			c-1.725,0.161-3.273,1.453-3.273,4.072v3.003c0,0.222-0.16,0.398-0.383,0.398s-0.4-0.159-0.4-0.398V128.244z"/>
		<path fill="#003548" d="M316.719,132.014v-0.034c0-2.282,1.773-4.263,4.201-4.263c2.41,0,4.166,1.947,4.166,4.232v0.03
			c0,2.286-1.773,4.266-4.199,4.266C318.477,136.245,316.719,134.296,316.719,132.014z M324.242,132.014v-0.034
			c0-1.964-1.471-3.528-3.355-3.528c-1.932,0-3.322,1.582-3.322,3.498v0.03c0,1.965,1.471,3.531,3.355,3.531
			C322.852,135.511,324.242,133.93,324.242,132.014z"/>
		<path fill="#003548" d="M327.605,124.731c0-0.224,0.16-0.4,0.385-0.4c0.223,0,0.4,0.177,0.4,0.4v10.986
			c0,0.239-0.162,0.398-0.385,0.398s-0.4-0.159-0.4-0.398V124.731z"/>
		<path fill="#003548" d="M335.701,132.014v-0.034c0-2.282,1.771-4.263,4.199-4.263c2.412,0,4.168,1.947,4.168,4.232v0.03
			c0,2.286-1.771,4.266-4.199,4.266C337.457,136.245,335.701,134.296,335.701,132.014z M343.223,132.014v-0.034
			c0-1.964-1.469-3.528-3.354-3.528c-1.934,0-3.322,1.582-3.322,3.498v0.03c0,1.965,1.469,3.531,3.354,3.531
			C341.834,135.511,343.223,133.93,343.223,132.014z"/>
		<path fill="#003548" d="M346.955,128.627h-0.877c-0.209,0-0.367-0.16-0.367-0.368c0-0.19,0.176-0.351,0.367-0.351h0.877v-0.797
			c0-0.927,0.256-1.661,0.721-2.126c0.412-0.414,0.988-0.637,1.707-0.637c0.4,0,0.703,0.046,0.975,0.11
			c0.176,0.033,0.303,0.192,0.303,0.367c0,0.224-0.207,0.383-0.445,0.336c-0.258-0.049-0.529-0.095-0.832-0.095
			c-1.117,0-1.645,0.67-1.645,2.06v0.781h2.539c0.207,0,0.367,0.16,0.367,0.367c0,0.191-0.176,0.352-0.367,0.352h-2.539v7.091
			c0,0.222-0.16,0.398-0.385,0.398c-0.223,0-0.398-0.177-0.398-0.398V128.627z"/>
		<path fill="#003548" d="M357.045,124.731c0-0.224,0.16-0.4,0.383-0.4c0.225,0,0.4,0.177,0.4,0.4v4.693
			c0.543-0.958,1.453-1.708,2.938-1.708c2.061,0,3.258,1.405,3.258,3.354v4.646c0,0.239-0.158,0.398-0.383,0.398
			s-0.4-0.159-0.4-0.398v-4.503c0-1.677-0.941-2.778-2.586-2.778c-1.598,0-2.826,1.212-2.826,2.905v4.376
			c0,0.239-0.16,0.398-0.383,0.398c-0.225,0-0.4-0.159-0.4-0.398V124.731z"/>
		<path fill="#003548" d="M370.264,136.245c-2.141,0-3.99-1.71-3.99-4.249v-0.031c0-2.363,1.658-4.248,3.863-4.248
			c2.283,0,3.736,1.885,3.736,4.217c0,0.19-0.191,0.367-0.383,0.367h-6.387c0.141,2.027,1.596,3.21,3.191,3.21
			c1.168,0,1.982-0.479,2.635-1.119c0.064-0.063,0.145-0.111,0.256-0.111c0.209,0,0.385,0.159,0.385,0.368
			c0,0.078-0.033,0.174-0.129,0.27C372.643,135.718,371.734,136.245,370.264,136.245z M373.025,131.598
			c-0.111-1.646-1.053-3.161-2.922-3.161c-1.613,0-2.859,1.356-3,3.161H373.025z"/>
		<path fill="#003548" d="M375.482,133.69v-0.033c0-1.692,1.453-2.65,3.561-2.65c1.133,0,1.916,0.144,2.699,0.353v-0.353
			c0-1.646-1.006-2.49-2.684-2.49c-0.893,0-1.643,0.223-2.316,0.542c-0.061,0.032-0.125,0.048-0.174,0.048
			c-0.191,0-0.367-0.177-0.367-0.367c0-0.192,0.145-0.32,0.225-0.352c0.828-0.367,1.645-0.606,2.684-0.606
			c1.1,0,1.979,0.304,2.57,0.894c0.541,0.543,0.828,1.295,0.828,2.299v4.744c0,0.239-0.158,0.398-0.383,0.398
			c-0.223,0-0.383-0.159-0.383-0.398v-1.023c-0.561,0.783-1.566,1.551-3.115,1.551C377.109,136.245,375.482,135.383,375.482,133.69z
			 M381.758,133.002v-0.924c-0.686-0.177-1.598-0.37-2.764-0.37c-1.723,0-2.68,0.769-2.68,1.901v0.032
			c0,1.181,1.117,1.869,2.363,1.869C380.338,135.511,381.758,134.489,381.758,133.002z"/>
		<path fill="#003548" d="M385.748,133.96v-5.333h-0.879c-0.191,0-0.367-0.176-0.367-0.368c0-0.19,0.176-0.351,0.367-0.351h0.879
			v-2.269c0-0.223,0.158-0.398,0.385-0.398c0.223,0,0.398,0.176,0.398,0.398v2.269h2.555c0.191,0,0.365,0.177,0.365,0.367
			c0,0.191-0.174,0.352-0.365,0.352h-2.555v5.254c0,1.166,0.686,1.582,1.627,1.582c0.561,0,0.814-0.16,0.928-0.16
			c0.174,0,0.352,0.16,0.352,0.352c0,0.159-0.098,0.271-0.258,0.334c-0.318,0.113-0.686,0.209-1.148,0.209
			C386.77,136.197,385.748,135.511,385.748,133.96z"/>
		<path fill="#003548" d="M391.719,125.113c0-0.271,0.205-0.478,0.479-0.478c0.271,0,0.494,0.206,0.494,0.478v0.272
			c0,0.271-0.223,0.479-0.494,0.479c-0.273,0-0.479-0.207-0.479-0.479V125.113z M391.813,128.244c0-0.224,0.162-0.398,0.385-0.398
			s0.4,0.159,0.4,0.398v7.474c0,0.239-0.162,0.398-0.385,0.398c-0.225,0-0.4-0.159-0.4-0.398V128.244z"/>
		<path fill="#003548" d="M395.676,128.244c0-0.224,0.162-0.398,0.385-0.398c0.225,0,0.398,0.159,0.398,0.398v1.181
			c0.545-0.958,1.453-1.708,2.938-1.708c2.063,0,3.26,1.405,3.26,3.354v4.646c0,0.239-0.16,0.398-0.383,0.398
			c-0.225,0-0.4-0.159-0.4-0.398v-4.503c0-1.677-0.943-2.778-2.588-2.778c-1.596,0-2.826,1.212-2.826,2.905v4.376
			c0,0.239-0.158,0.398-0.381,0.398c-0.225,0-0.402-0.159-0.402-0.398V128.244z"/>
		<path fill="#003548" d="M405.48,137.521c-0.113-0.079-0.178-0.207-0.178-0.352c0-0.175,0.191-0.367,0.4-0.367
			c0.094,0,0.158,0.033,0.225,0.064c0.924,0.688,1.994,1.038,3.129,1.038c1.867,0,3.191-1.069,3.191-3.162v-1.182
			c-0.701,1.007-1.787,1.885-3.4,1.885c-1.963,0-3.912-1.502-3.912-3.833v-0.032c0-2.346,1.949-3.864,3.912-3.864
			c1.629,0,2.73,0.863,3.4,1.821v-1.294c0-0.224,0.162-0.398,0.385-0.398s0.4,0.175,0.4,0.398v6.548
			c0,1.181-0.385,2.108-1.039,2.763c-0.703,0.701-1.756,1.084-2.955,1.084C407.746,138.639,406.533,138.256,405.48,137.521z
			 M412.297,131.598v-0.031c0-1.885-1.676-3.1-3.369-3.1c-1.709,0-3.145,1.182-3.145,3.082v0.032c0,1.837,1.469,3.113,3.145,3.113
			C410.621,134.694,412.297,133.449,412.297,131.598z"/>
		<path fill="#003548" d="M420.117,133.69v-0.033c0-1.692,1.453-2.65,3.561-2.65c1.133,0,1.916,0.144,2.699,0.353v-0.353
			c0-1.646-1.006-2.49-2.684-2.49c-0.893,0-1.645,0.223-2.316,0.542c-0.063,0.032-0.125,0.048-0.174,0.048
			c-0.193,0-0.367-0.177-0.367-0.367c0-0.192,0.143-0.32,0.223-0.352c0.83-0.367,1.646-0.606,2.684-0.606
			c1.102,0,1.979,0.304,2.57,0.894c0.543,0.543,0.83,1.295,0.83,2.299v4.744c0,0.239-0.16,0.398-0.383,0.398
			c-0.225,0-0.383-0.159-0.383-0.398v-1.023c-0.559,0.783-1.566,1.551-3.115,1.551C421.746,136.245,420.117,135.383,420.117,133.69z
			 M426.393,133.002v-0.924c-0.686-0.177-1.598-0.37-2.762-0.37c-1.725,0-2.682,0.769-2.682,1.901v0.032
			c0,1.181,1.117,1.869,2.361,1.869C424.973,135.511,426.393,134.489,426.393,133.002z"/>
		<path fill="#003548" d="M429.951,128.244c0-0.224,0.16-0.398,0.383-0.398c0.225,0,0.4,0.159,0.4,0.398v1.181
			c0.543-0.958,1.453-1.708,2.936-1.708c2.063,0,3.26,1.405,3.26,3.354v4.646c0,0.239-0.158,0.398-0.383,0.398
			c-0.223,0-0.4-0.159-0.4-0.398v-4.503c0-1.677-0.941-2.778-2.586-2.778c-1.598,0-2.826,1.212-2.826,2.905v4.376
			c0,0.239-0.16,0.398-0.383,0.398c-0.225,0-0.4-0.159-0.4-0.398V128.244z"/>
		<path fill="#003548" d="M447.307,135.718c0,0.239-0.16,0.398-0.383,0.398c-0.225,0-0.4-0.159-0.4-0.398v-1.485
			c-0.703,1.07-1.742,2.013-3.354,2.013c-1.965,0-3.961-1.581-3.961-4.231v-0.034c0-2.65,1.996-4.263,3.961-4.263
			c1.629,0,2.684,0.926,3.354,1.947v-4.933c0-0.239,0.16-0.4,0.385-0.4c0.223,0,0.398,0.161,0.398,0.4V135.718z M440.057,131.949
			v0.03c0,2.142,1.484,3.514,3.193,3.514c1.693,0,3.32-1.42,3.32-3.497v-0.031c0-2.093-1.627-3.498-3.32-3.498
			C441.477,128.467,440.057,129.761,440.057,131.949z"/>
		<path fill="#003548" d="M454.535,135.158c-0.064-0.048-0.145-0.177-0.145-0.303c0-0.207,0.176-0.384,0.383-0.384
			c0.098,0,0.191,0.033,0.258,0.079c0.844,0.607,1.74,0.927,2.713,0.927c1.102,0,1.965-0.606,1.965-1.548v-0.033
			c0-0.958-1.023-1.309-2.156-1.629c-1.326-0.383-2.795-0.782-2.795-2.234V130c0-1.31,1.104-2.252,2.682-2.252
			c0.881,0,1.854,0.288,2.637,0.735c0.096,0.063,0.207,0.177,0.207,0.352c0,0.207-0.176,0.383-0.383,0.383
			c-0.098,0-0.176-0.032-0.223-0.063c-0.703-0.416-1.486-0.672-2.268-0.672c-1.119,0-1.854,0.607-1.854,1.421v0.032
			c0,0.911,1.102,1.246,2.268,1.581c1.309,0.367,2.684,0.846,2.684,2.283v0.033c0,1.453-1.246,2.378-2.813,2.378
			C456.594,136.212,455.367,135.781,454.535,135.158z"/>
		<path fill="#003548" d="M462.994,124.731c0-0.224,0.16-0.4,0.385-0.4c0.223,0,0.398,0.177,0.398,0.4v4.693
			c0.545-0.958,1.453-1.708,2.938-1.708c2.063,0,3.258,1.405,3.258,3.354v4.646c0,0.239-0.158,0.398-0.381,0.398
			c-0.225,0-0.4-0.159-0.4-0.398v-4.503c0-1.677-0.943-2.778-2.586-2.778c-1.598,0-2.828,1.212-2.828,2.905v4.376
			c0,0.239-0.158,0.398-0.383,0.398s-0.4-0.159-0.4-0.398V124.731z"/>
		<path fill="#003548" d="M472.223,132.014v-0.034c0-2.282,1.771-4.263,4.199-4.263c2.412,0,4.166,1.947,4.166,4.232v0.03
			c0,2.286-1.77,4.266-4.197,4.266C473.979,136.245,472.223,134.296,472.223,132.014z M479.744,132.014v-0.034
			c0-1.964-1.469-3.528-3.354-3.528c-1.934,0-3.322,1.582-3.322,3.498v0.03c0,1.965,1.469,3.531,3.354,3.531
			C478.354,135.511,479.744,133.93,479.744,132.014z"/>
		<path fill="#003548" d="M485.168,135.813l-2.666-7.33c-0.031-0.08-0.063-0.176-0.063-0.255c0-0.208,0.189-0.383,0.414-0.383
			c0.223,0,0.352,0.144,0.416,0.334l2.363,6.882l2.363-6.913c0.063-0.177,0.174-0.303,0.383-0.303h0.031
			c0.225,0,0.336,0.126,0.4,0.303l2.363,6.913l2.379-6.913c0.049-0.159,0.16-0.303,0.383-0.303c0.225,0,0.4,0.175,0.4,0.366
			c0,0.096-0.033,0.191-0.064,0.271l-2.668,7.33c-0.078,0.225-0.238,0.352-0.43,0.352h-0.031c-0.209,0-0.354-0.127-0.432-0.369
			l-2.316-6.658l-2.332,6.658c-0.08,0.242-0.223,0.369-0.43,0.369H485.6C485.408,136.165,485.248,136.038,485.168,135.813z"/>
		<path fill="#003548" d="M500.176,136.245c-2.139,0-3.992-1.71-3.992-4.249v-0.031c0-2.363,1.66-4.248,3.865-4.248
			c2.283,0,3.736,1.885,3.736,4.217c0,0.19-0.191,0.367-0.383,0.367h-6.389c0.145,2.027,1.598,3.21,3.195,3.21
			c1.164,0,1.979-0.479,2.635-1.119c0.064-0.063,0.143-0.111,0.254-0.111c0.207,0,0.385,0.159,0.385,0.368
			c0,0.078-0.033,0.174-0.129,0.27C502.555,135.718,501.645,136.245,500.176,136.245z M502.938,131.598
			c-0.111-1.646-1.053-3.161-2.922-3.161c-1.613,0-2.857,1.356-3.002,3.161H502.938z"/>
		<path fill="#003548" d="M506.064,128.244c0-0.224,0.162-0.398,0.387-0.398c0.223,0,0.396,0.159,0.396,0.398v1.98
			c0.703-1.582,2.125-2.443,3.273-2.443c0.24,0,0.416,0.19,0.416,0.431c0,0.225-0.16,0.415-0.416,0.431
			c-1.725,0.161-3.273,1.453-3.273,4.072v3.003c0,0.222-0.16,0.398-0.383,0.398s-0.4-0.159-0.4-0.398V128.244z"/>
		<path fill="#003548" d="M516.713,135.158c-0.064-0.048-0.143-0.177-0.143-0.303c0-0.207,0.176-0.384,0.381-0.384
			c0.098,0,0.193,0.033,0.256,0.079c0.848,0.607,1.742,0.927,2.715,0.927c1.102,0,1.965-0.606,1.965-1.548v-0.033
			c0-0.958-1.021-1.309-2.156-1.629c-1.324-0.383-2.795-0.782-2.795-2.234V130c0-1.31,1.102-2.252,2.684-2.252
			c0.879,0,1.852,0.288,2.635,0.735c0.096,0.063,0.207,0.177,0.207,0.352c0,0.207-0.176,0.383-0.383,0.383
			c-0.096,0-0.176-0.032-0.223-0.063c-0.703-0.416-1.484-0.672-2.27-0.672c-1.117,0-1.852,0.607-1.852,1.421v0.032
			c0,0.911,1.102,1.246,2.268,1.581c1.311,0.367,2.684,0.846,2.684,2.283v0.033c0,1.453-1.244,2.378-2.813,2.378
			C518.771,136.212,517.543,135.781,516.713,135.158z"/>
		<path fill="#003548" d="M524.775,138.399c-0.129-0.046-0.225-0.159-0.225-0.333c0-0.209,0.16-0.368,0.367-0.368
			c0.08,0,0.16,0.032,0.254,0.063c0.258,0.097,0.545,0.161,1.041,0.161c0.893,0,1.436-0.59,1.961-1.806l0.049-0.111l-3.641-7.521
			c-0.031-0.08-0.063-0.16-0.063-0.239c0-0.224,0.176-0.398,0.414-0.398s0.338,0.144,0.416,0.318l3.256,7.026l2.844-7.058
			c0.064-0.161,0.176-0.287,0.385-0.287c0.223,0,0.398,0.175,0.398,0.398c0,0.079-0.016,0.128-0.049,0.207l-3.305,7.89
			c-0.721,1.708-1.549,2.315-2.715,2.315C525.619,138.656,525.205,138.56,524.775,138.399z"/>
		<path fill="#003548" d="M534.033,135.158c-0.063-0.048-0.145-0.177-0.145-0.303c0-0.207,0.178-0.384,0.385-0.384
			c0.096,0,0.191,0.033,0.256,0.079c0.846,0.607,1.74,0.927,2.715,0.927c1.102,0,1.965-0.606,1.965-1.548v-0.033
			c0-0.958-1.023-1.309-2.156-1.629c-1.326-0.383-2.795-0.782-2.795-2.234V130c0-1.31,1.102-2.252,2.682-2.252
			c0.879,0,1.854,0.288,2.635,0.735c0.096,0.063,0.209,0.177,0.209,0.352c0,0.207-0.176,0.383-0.383,0.383
			c-0.098,0-0.176-0.032-0.225-0.063c-0.703-0.416-1.486-0.672-2.268-0.672c-1.117,0-1.854,0.607-1.854,1.421v0.032
			c0,0.911,1.102,1.246,2.268,1.581c1.311,0.367,2.684,0.846,2.684,2.283v0.033c0,1.453-1.246,2.378-2.811,2.378
			C536.094,136.212,534.865,135.781,534.033,135.158z"/>
		<path fill="#003548" d="M542.926,133.96v-5.333h-0.879c-0.191,0-0.367-0.176-0.367-0.368c0-0.19,0.176-0.351,0.367-0.351h0.879
			v-2.269c0-0.223,0.158-0.398,0.383-0.398s0.398,0.176,0.398,0.398v2.269h2.557c0.191,0,0.367,0.177,0.367,0.367
			c0,0.191-0.176,0.352-0.367,0.352h-2.557v5.254c0,1.166,0.688,1.582,1.629,1.582c0.559,0,0.814-0.16,0.928-0.16
			c0.174,0,0.352,0.16,0.352,0.352c0,0.159-0.098,0.271-0.256,0.334c-0.32,0.113-0.688,0.209-1.15,0.209
			C543.947,136.197,542.926,135.511,542.926,133.96z"/>
		<path fill="#003548" d="M552.313,136.245c-2.141,0-3.992-1.71-3.992-4.249v-0.031c0-2.363,1.66-4.248,3.865-4.248
			c2.283,0,3.736,1.885,3.736,4.217c0,0.19-0.193,0.367-0.383,0.367h-6.389c0.145,2.027,1.598,3.21,3.195,3.21
			c1.164,0,1.979-0.479,2.635-1.119c0.063-0.063,0.143-0.111,0.254-0.111c0.207,0,0.385,0.159,0.385,0.368
			c0,0.078-0.033,0.174-0.129,0.27C554.691,135.718,553.781,136.245,552.313,136.245z M555.076,131.598
			c-0.111-1.646-1.055-3.161-2.924-3.161c-1.611,0-2.857,1.356-3.002,3.161H555.076z"/>
		<path fill="#003548" d="M558.201,128.244c0-0.224,0.162-0.398,0.385-0.398s0.398,0.159,0.398,0.398v1.117
			c0.527-0.845,1.262-1.645,2.715-1.645c1.422,0,2.301,0.814,2.746,1.757c0.527-0.911,1.406-1.757,2.939-1.757
			c1.932,0,3.129,1.356,3.129,3.4v4.601c0,0.239-0.158,0.398-0.383,0.398c-0.223,0-0.398-0.159-0.398-0.398v-4.503
			c0-1.757-0.91-2.778-2.412-2.778c-1.375,0-2.572,1.053-2.572,2.873v4.408c0,0.239-0.158,0.398-0.381,0.398
			c-0.225,0-0.4-0.159-0.4-0.398v-4.552c0-1.692-0.926-2.729-2.379-2.729s-2.604,1.276-2.604,2.923v4.358
			c0,0.239-0.16,0.398-0.383,0.398s-0.4-0.159-0.4-0.398V128.244z"/>
		<path fill="#003548" d="M573.734,134.633c0.303,0,0.527,0.223,0.527,0.525v0.432c0,0.304-0.225,0.526-0.527,0.526
			s-0.527-0.223-0.527-0.526v-0.432C573.207,134.855,573.432,134.633,573.734,134.633z"/>
	</g>
</g>
<g>
	<g>
		<g>
			<path fill="#F4AF8F" d="M67.803,77.021c-13.065,0-23.695-10.629-23.695-23.695S54.737,29.63,67.803,29.63
				s23.695,10.629,23.695,23.695S80.868,77.021,67.803,77.021z"/>
			<path fill="#F4AF8F" d="M67.803,31.196c-12.201,0-22.129,9.929-22.129,22.129c0,12.202,9.928,22.129,22.129,22.129
				c12.203,0,22.13-9.927,22.13-22.129C89.933,41.125,80.006,31.196,67.803,31.196z"/>
		</g>
	</g>
	<g>
		<g>
			<path fill="#F4AF8F" d="M68.744,26.301V12.2c0-0.518-0.421-0.938-0.942-0.938c-0.519,0-0.939,0.421-0.939,0.938v14.101
				c0,0.52,0.421,0.938,0.939,0.938C68.323,27.239,68.744,26.82,68.744,26.301z"/>
		</g>
		<g>
			<path fill="#F4AF8F" d="M68.744,94.45v-14.1c0-0.519-0.421-0.939-0.942-0.939c-0.519,0-0.939,0.421-0.939,0.939v14.1
				c0,0.52,0.421,0.938,0.939,0.938C68.323,95.389,68.744,94.97,68.744,94.45z"/>
		</g>
		<g>
			<path fill="#F4AF8F" d="M109.868,53.325c0-0.516-0.421-0.938-0.942-0.938h-14.1c-0.519,0-0.938,0.423-0.938,0.938
				c0,0.521,0.42,0.938,0.938,0.938h14.1C109.447,54.264,109.868,53.847,109.868,53.325z"/>
		</g>
		<g>
			<path fill="#F4AF8F" d="M41.718,53.325c0-0.516-0.419-0.938-0.94-0.938H26.677c-0.518,0-0.938,0.423-0.938,0.938
				c0,0.521,0.421,0.938,0.938,0.938h14.101C41.299,54.264,41.718,53.847,41.718,53.325z"/>
		</g>
		<g>
			<path fill="#F4AF8F" d="M87.578,34.881l9.969-9.969c0.366-0.368,0.366-0.964,0-1.329c-0.367-0.367-0.962-0.367-1.329,0
				l-9.971,9.969c-0.367,0.367-0.367,0.963,0,1.329c0.184,0.184,0.425,0.275,0.666,0.275C87.153,35.156,87.395,35.064,87.578,34.881
				z"/>
		</g>
		<g>
			<path fill="#F4AF8F" d="M39.389,83.068l9.969-9.97c0.367-0.367,0.367-0.961,0-1.329c-0.367-0.366-0.961-0.366-1.328,0
				l-9.971,9.973c-0.366,0.367-0.366,0.96,0,1.326c0.184,0.185,0.424,0.278,0.665,0.278C38.963,83.347,39.205,83.253,39.389,83.068z
				"/>
		</g>
		<g>
			<path fill="#F4AF8F" d="M97.547,83.068c0.366-0.366,0.366-0.959,0-1.326l-9.969-9.973c-0.367-0.365-0.962-0.366-1.331,0
				c-0.367,0.368-0.367,0.962,0,1.329l9.971,9.97c0.184,0.185,0.424,0.278,0.666,0.278C97.121,83.347,97.363,83.253,97.547,83.068z"
				/>
		</g>
		<g>
			<path fill="#F4AF8F" d="M49.357,34.881c0.367-0.366,0.367-0.962,0-1.329l-9.969-9.969c-0.365-0.367-0.961-0.367-1.33,0
				c-0.366,0.365-0.366,0.961,0,1.329l9.971,9.969c0.183,0.184,0.424,0.275,0.663,0.275C48.934,35.156,49.174,35.064,49.357,34.881z
				"/>
		</g>
	</g>
	<g>
		<path fill="#D2ECFA" d="M50.73,51.965c0-7.578,6.167-13.748,13.746-13.748c0.303,0,0.549-0.244,0.549-0.548
			c0-0.303-0.246-0.547-0.549-0.547c-8.187,0-14.844,6.658-14.844,14.843c0,0.304,0.244,0.548,0.547,0.548
			C50.483,52.513,50.73,52.269,50.73,51.965z"/>
	</g>
</g>
<g>
</g>
<g>
</g>
<g>
</g>
<g>
</g>
<g>
</g>
<g>
</g>
</svg>
