<?xml version="1.0" encoding="utf-8"?>
<!-- Generator: Adobe Illustrator 16.0.0, SVG Export Plug-In . SVG Version: 6.00 Build 0)  -->
<!DOCTYPE svg PUBLIC "-//W3C//DTD SVG 1.1//EN" "http://www.w3.org/Graphics/SVG/1.1/DTD/svg11.dtd">
<svg version="1.1" id="图层_1" xmlns="http://www.w3.org/2000/svg" xmlns:xlink="http://www.w3.org/1999/xlink" x="0px" y="0px"
	 width="700px" height="700px" viewBox="0 0 700 700" enable-background="new 0 0 700 700" xml:space="preserve">
<g>
	<g>
		<path fill="#FFFFFF" d="M0,350c0,78.743,26.007,151.41,69.896,209.887c13.156,17.529,37.77,18.808,52.832,4.594
			C137.79,550.266,150,530.073,150,519.379c0-9.683,0-19.364,0-19.364V199.985c0,0,0-8.666,0-19.356s12.046-32.542,29.215-46.166
			C226.13,97.235,285.466,75,350,75c151.877,0,275,123.122,275,275S501.877,625,350,625c-28.161,0-55.33-4.238-80.91-12.106
			c-20.949-6.444-44.141,0.801-53.017,19.521c-8.876,18.721-0.074,41.757,20.665,48.848C272.263,693.407,310.361,700,350,700
			c193.3,0,350-156.7,350-350S543.3,0,350,0S0,156.7,0,350z"/>
		<path fill="#FFFFFF" d="M350,100c-53.88,0-103.775,17.049-144.593,46.043C187.539,158.735,175,189.247,175,211.164v277.672
			c0,21.917,12.539,52.429,30.407,65.121C246.225,582.951,296.12,600,350,600c138.07,0,250-111.929,250-250S488.07,100,350,100z"/>
	</g>
	<circle fill="#FFFFFF" cx="157.167" cy="612.165" r="37.5"/>
</g>
<g>
</g>
<g>
</g>
<g>
</g>
<g>
</g>
<g>
</g>
<g>
</g>
</svg>
