<?xml version="1.0" encoding="utf-8"?>
<!-- Generator: Adobe Illustrator 16.0.0, SVG Export Plug-In . SVG Version: 6.00 Build 0)  -->
<!DOCTYPE svg PUBLIC "-//W3C//DTD SVG 1.1//EN" "http://www.w3.org/Graphics/SVG/1.1/DTD/svg11.dtd">
<svg version="1.1" id="图层_1" xmlns="http://www.w3.org/2000/svg" xmlns:xlink="http://www.w3.org/1999/xlink" x="0px" y="0px"
	 width="250px" height="250px" viewBox="0 0 250 250" enable-background="new 0 0 250 250" xml:space="preserve">
<g>
	<path fill="#FFFFFF" d="M59.467,72.555H45.632h-0.003v-0.007c-3.412,0-6.179-2.759-6.196-6.165c0-0.01,0.001-0.016,0.001-0.025
		V52.521c0-3.423-2.774-6.197-6.196-6.197H6.197C2.774,46.324,0,49.099,0,52.521v13.836c0,3.423,2.774,6.197,6.197,6.197h27.041
		c0.021,0,0.04-0.003,0.061-0.003c3.393,0.035,6.134,2.794,6.134,6.194v1.337h0.001v64.563h-0.006v0.561
		c0,3.422-2.774,6.197-6.197,6.197h-1.337H6.197c-3.423,0-6.197,2.775-6.197,6.199v13.834c0,3.424,2.774,6.197,6.197,6.197h27.041
		c3.421,0,6.196-2.773,6.196-6.197v-13.834c0-0.025-0.002-0.049-0.002-0.072c0.038-3.387,2.79-6.123,6.187-6.127h0.014h13.835
		c3.423,0,6.197-2.773,6.197-6.195V78.752C65.665,75.329,62.891,72.555,59.467,72.555"/>
	<path fill="#FFFFFF" d="M247.433,197.479l-63.192-63.4c0.31-0.737,0.48-1.546,0.48-2.395v-13.836v-0.001h0.004
		c0-3.417,2.766-6.188,6.182-6.196h0.012h13.836c3.423,0,6.198-2.774,6.198-6.197V78.751c0-3.421-2.775-6.195-6.198-6.195h-13.815
		v-0.007c-3.421,0-6.196-2.774-6.196-6.197v-0.395h-0.021V52.522c0-3.423-2.773-6.197-6.195-6.197H98.917
		c-3.422,0-6.198,2.774-6.198,6.197v13.836c0,3.423,2.776,6.197,6.198,6.197h79.608c0.023,0,0.047-0.004,0.072-0.005
		c3.328,0.028,6.025,2.68,6.135,5.988c-0.002,0.071-0.012,0.141-0.012,0.212v26.702c0,0.009,0.002,0.02,0.002,0.028
		c-0.017,3.408-2.782,6.167-6.194,6.167h-1.338v0.002h-21.475c-0.018,0-0.034,0.003-0.054,0.003s-0.038-0.003-0.058-0.003h-20.897
		c-3.423,0-3.423,2.774,0,6.197l79.433,79.631c3.424,3.424,8.973,6.197,12.393,6.197h20.9
		C250.855,203.676,250.855,200.902,247.433,197.479"/>
</g>
<g>
</g>
<g>
</g>
<g>
</g>
<g>
</g>
<g>
</g>
<g>
</g>
</svg>
